<?xml version="1.0" encoding="UTF-8" standalone="no"?>
<!-- Created with Inkscape (http://www.inkscape.org/) -->

<svg
   version="1.1"
   id="svg1"
   viewBox="0 0 1386.9956 317.05163"
   sodipodi:docname="curfee-page-2.svg"
   xmlns:inkscape="http://www.inkscape.org/namespaces/inkscape"
   xmlns:sodipodi="http://sodipodi.sourceforge.net/DTD/sodipodi-0.dtd"
   xmlns="http://www.w3.org/2000/svg"
   xmlns:svg="http://www.w3.org/2000/svg">
  <defs
     id="defs1" />
  <sodipodi:namedview
     id="namedview1"
     pagecolor="#003366"
     bordercolor="#003366"
     borderopacity="0.25"
     inkscape:showpageshadow="2"
     inkscape:pageopacity="0.0"
     inkscape:pagecheckerboard="0"
     inkscape:deskcolor="#d1d1d1">
    <inkscape:page
       x="-79.185745"
       y="-79.18631"
       inkscape:label="2"
       id="page1"
       width="1545.3733"
       height="475.42401"
       margin="79.185997 79.186668 79.186668 79.185997"
       bleed="0" />
  </sodipodi:namedview>
  <g
     id="layer-MC0"
     inkscape:groupmode="layer"
     inkscape:label="Layer 1"
     transform="translate(-79.185744,-79.18631)">
    <path
       id="path1"
       d="m 0,0 -3.051,2.221 -17.86,12.973 c -0.345,0.247 -0.701,0.464 -1.066,0.652 -3.545,1.836 -7.997,0.859 -10.426,-2.478 l -32.886,-45.257 c -2.409,-3.318 -1.975,-7.859 0.849,-10.653 -10.213,-5.861 -21.717,-9.73 -33.961,-11.065 0.724,3.892 -1.525,7.811 -5.391,9.068 l -53.633,17.426 c -3.856,1.253 -7.968,-0.584 -9.678,-4.141 -8.824,8.049 -16.012,17.85 -21.005,28.854 3.929,0.51 6.966,3.862 6.966,7.93 v 56.393 c 0,4.068 -3.036,7.419 -6.965,7.93 4.993,11.003 12.181,20.814 21.005,28.853 1.71,-3.556 5.821,-5.393 9.677,-4.14 l 53.633,17.426 c 3.869,1.257 6.118,5.182 5.389,9.077 12.245,-1.335 23.75,-5.204 33.963,-11.065 -2.824,-2.804 -3.258,-7.346 -0.849,-10.663 l 32.886,-45.257 c 2.429,-3.337 6.881,-4.315 10.426,-2.478 0.365,0.187 0.721,0.414 1.066,0.661 L -3.061,65.23 0,67.451 c 3.683,2.676 4.492,7.82 1.827,11.502 l -32.887,45.258 c -2.676,3.672 -7.819,4.492 -11.492,1.816 l -3.09,-2.241 c -17.08,11.867 -37.685,19.005 -59.899,19.499 h -0.002 l -1.235,3.802 c -1.367,4.205 -5.883,6.506 -10.087,5.14 L -170.498,134.8 c -4.205,-1.366 -6.506,-5.882 -5.14,-10.086 l 1.252,-3.852 c -16.872,-12.874 -29.904,-30.536 -37.061,-50.932 -0.001,-0.001 -0.001,-0.001 -0.001,-0.002 h -3.994 c -4.421,0 -8.005,-3.584 -8.005,-8.005 V 5.53 c 0,-4.421 3.584,-8.005 8.005,-8.005 h 3.994 c 0,-10e-4 0,-0.002 0.001,-0.003 7.157,-20.397 20.19,-38.05 37.062,-50.924 0.001,0 0.001,-10e-4 0.001,-10e-4 l -1.253,-3.858 c -1.367,-4.204 0.935,-8.72 5.139,-10.087 l 53.633,-17.426 c 4.205,-1.366 8.721,0.935 10.087,5.14 l 1.242,3.82 h 0.005 c 22.214,0.484 42.799,7.612 59.879,19.489 l 3.09,-2.251 c 3.683,-2.675 8.826,-1.856 11.502,1.827 L 1.817,-11.502 C 4.492,-7.819 3.683,-2.675 0,0"
       style="fill:currentColor;fill-opacity:1;fill-rule:nonzero;stroke:none"
       transform="matrix(1.3333333,0,0,-1.3333333,377.11507,282.6808)" />
    <path
       id="path2"
       d="M 0,0 H 25.46 C 25.37,-3.24 25.03,-6.24 24.44,-8.99 21.17,-24.45 10.17,-32.18 -8.57,-32.18 h -35.1 c -22.7,0 -34.05,11.35 -34.05,34.06 v 76.05 c 0,22.7 11.35,34.05 34.05,34.05 h 35.1 c 18.74,0 29.75,-7.73 33.01,-23.19 0.59,-2.75 0.93,-5.74 1.02,-8.98 H 0 c 0,5.99 -3.06,8.98 -9.19,8.98 h -33.85 c -6.13,0 -9.19,-2.99 -9.19,-8.98 V 0 c 0,-5.99 3.06,-8.99 9.19,-8.99 h 33.85 c 6.13,0 9.19,3 9.19,8.99"
       style="fill:currentColor;fill-opacity:1;fill-rule:nonzero;stroke:none"
       transform="matrix(1.3333333,0,0,-1.3333333,564.45547,290.91467)" />
    <path
       id="path3"
       d="M 0,0 V 110.106 H 25.489 V -1.881 c 0,-5.99 3.063,-8.983 9.194,-8.983 h 42.413 c 6.127,0 9.193,2.993 9.193,8.983 v 111.987 h 25.489 V 0 c 0,-22.706 -11.354,-34.055 -34.055,-34.055 H 34.057 C 11.351,-34.055 0,-22.706 0,0"
       style="fill:currentColor;fill-opacity:1;fill-rule:nonzero;stroke:none"
       transform="matrix(1.3333333,0,0,-1.3333333,634.36973,288.41107)" />
    <path
       id="path4"
       d="m 0,0 h 43.25 c 6.126,0 9.192,3.063 9.192,9.193 v 26.951 c 0,5.988 -3.066,8.985 -9.192,8.985 H 0 Z M -25.489,-75.841 V 68.32 h 69.365 c 22.702,0 34.055,-11.354 34.055,-34.055 V 10.656 c 0,-17.551 -6.966,-28.205 -20.893,-31.967 L 82.11,-70.409 78.975,-75.841 H 57.246 l -26.741,52.65 H 0 v -52.65 z"
       style="fill:currentColor;fill-opacity:1;fill-rule:nonzero;stroke:none"
       transform="matrix(1.3333333,0,0,-1.3333333,863.07587,232.6968)" />
    <path
       id="path5"
       d="M 0,0 V 144.161 H 96.943 V 120.97 H 25.489 V 80.02 H 90.676 V 56.829 H 25.489 V 0 Z"
       style="fill:currentColor;fill-opacity:1;fill-rule:nonzero;stroke:none"
       transform="matrix(1.3333333,0,0,-1.3333333,1008.7676,333.818)" />
    <path
       id="path6"
       d="M 0,0 V 144.161 H 96.942 V 120.97 H 25.489 V 86.287 H 90.674 V 63.096 H 25.489 V 23.191 H 96.942 V 0 Z"
       style="fill:currentColor;fill-opacity:1;fill-rule:nonzero;stroke:none"
       transform="matrix(1.3333333,0,0,-1.3333333,1170.0588,333.818)" />
    <path
       id="path7"
       d="M 0,0 V 144.161 H 96.943 V 120.97 H 25.489 V 86.287 H 90.676 V 63.096 H 25.489 V 23.191 H 96.943 V 0 Z"
       style="fill:currentColor;fill-opacity:1;fill-rule:nonzero;stroke:none"
       transform="matrix(1.3333333,0,0,-1.3333333,1336.924,333.818)" />
  </g>
</svg>
