<svg xmlns="http://www.w3.org/2000/svg" viewBox="370 30 1100 290">
  <g transform="translate(-79.185744,-79.18631)">
    <path d="M 0,0 H 25.46 C 25.37,-3.24 25.03,-6.24 24.44,-8.99 21.17,-24.45 10.17,-32.18 -8.57,-32.18 h -35.1 c -22.7,0 -34.05,11.35 -34.05,34.06 v 76.05 c 0,22.7 11.35,34.05 34.05,34.05 h 35.1 c 18.74,0 29.75,-7.73 33.01,-23.19 0.59,-2.75 0.93,-5.74 1.02,-8.98 H 0 c 0,5.99 -3.06,8.98 -9.19,8.98 h -33.85 c -6.13,0 -9.19,-2.99 -9.19,-8.98 V 0 c 0,-5.99 3.06,-8.99 9.19,-8.99 h 33.85 c 6.13,0 9.19,3 9.19,8.99" style="fill:currentColor;fill-rule:nonzero;stroke:none" transform="matrix(1.3333333,0,0,-1.3333333,564.45547,290.91467)"/>
    <path d="M 0,0 V 110.106 H 25.489 V -1.881 c 0,-5.99 3.063,-8.983 9.194,-8.983 h 42.413 c 6.127,0 9.193,2.993 9.193,8.983 v 111.987 h 25.489 V 0 c 0,-22.706 -11.354,-34.055 -34.055,-34.055 H 34.057 C 11.351,-34.055 0,-22.706 0,0" style="fill:currentColor;fill-rule:nonzero;stroke:none" transform="matrix(1.3333333,0,0,-1.3333333,634.36973,288.41107)"/>
    <path d="m 0,0 h 43.25 c 6.126,0 9.192,3.063 9.192,9.193 v 26.951 c 0,5.988 -3.066,8.985 -9.192,8.985 H 0 Z M -25.489,-75.841 V 68.32 h 69.365 c 22.702,0 34.055,-11.354 34.055,-34.055 V 10.656 c 0,-17.551 -6.966,-28.205 -20.893,-31.967 L 82.11,-70.409 78.975,-75.841 H 57.246 l -26.741,52.65 H 0 v -52.65 z" style="fill:currentColor;fill-rule:nonzero;stroke:none" transform="matrix(1.3333333,0,0,-1.3333333,863.07587,232.6968)"/>
    <path d="M 0,0 V 144.161 H 96.943 V 120.97 H 25.489 V 80.02 H 90.676 V 56.829 H 25.489 V 0 Z" style="fill:currentColor;fill-rule:nonzero;stroke:none" transform="matrix(1.3333333,0,0,-1.3333333,1008.7676,333.818)"/>
    <path d="M 0,0 V 144.161 H 96.942 V 120.97 H 25.489 V 86.287 H 90.674 V 63.096 H 25.489 V 23.191 H 96.942 V 0 Z" style="fill:currentColor;fill-rule:nonzero;stroke:none" transform="matrix(1.3333333,0,0,-1.3333333,1170.0588,333.818)"/>
    <path d="M 0,0 V 144.161 H 96.943 V 120.97 H 25.489 V 86.287 H 90.676 V 63.096 H 25.489 V 23.191 H 96.943 V 0 Z" style="fill:currentColor;fill-rule:nonzero;stroke:none" transform="matrix(1.3333333,0,0,-1.3333333,1336.924,333.818)"/>
  </g>
</svg>
