<?xml version="1.0" encoding="UTF-8" standalone="no"?>
<!-- Created with Inkscape (http://www.inkscape.org/) -->

<svg
   version="1.1"
   id="svg1"
   width="476.03412"
   height="499.00449"
   viewBox="0 0 476.03412 499.00449"
   sodipodi:docname="curfee-page-8.svg"
   xmlns:inkscape="http://www.inkscape.org/namespaces/inkscape"
   xmlns:sodipodi="http://sodipodi.sourceforge.net/DTD/sodipodi-0.dtd"
   xmlns="http://www.w3.org/2000/svg"
   xmlns:svg="http://www.w3.org/2000/svg">
  <defs
     id="defs1" />
  <sodipodi:namedview
     id="namedview1"
     pagecolor="#003366"
     bordercolor="#003366"
     borderopacity="0.25"
     inkscape:showpageshadow="2"
     inkscape:pageopacity="0.0"
     inkscape:pagecheckerboard="0"
     inkscape:deskcolor="#d1d1d1">
    <inkscape:page
       x="-124.63014"
       y="-124.63071"
       inkscape:label="8"
       id="page1"
       width="725.29468"
       height="748.26532"
       margin="124.63 124.63067 124.63067 124.63"
       bleed="0" />
  </sodipodi:namedview>
  <g
     id="layer-MC0"
     inkscape:groupmode="layer"
     inkscape:label="Layer 1"
     transform="translate(-124.63014,-124.6307)">
    <path
       id="path1"
       d="m 0,0 -4.801,3.496 -28.11,20.418 c -0.544,0.389 -1.103,0.731 -1.678,1.026 -5.579,2.89 -12.587,1.352 -16.409,-3.9 l -51.76,-71.23 c -3.792,-5.221 -3.108,-12.369 1.336,-16.767 -16.074,-9.224 -34.18,-15.313 -53.451,-17.415 1.14,6.126 -2.399,12.295 -8.484,14.272 l -84.412,27.427 c -6.071,1.973 -12.542,-0.92 -15.232,-6.517 -13.888,12.668 -25.202,28.094 -33.06,45.412 6.184,0.804 10.964,6.079 10.964,12.482 V 97.46 c 0,6.403 -4.78,11.677 -10.963,12.481 7.858,17.318 19.172,32.759 33.059,45.411 2.692,-5.597 9.161,-8.488 15.231,-6.516 l 84.412,27.427 c 6.09,1.979 9.63,8.156 8.482,14.286 19.273,-2.101 37.38,-8.19 53.454,-17.415 -4.444,-4.413 -5.128,-11.561 -1.336,-16.782 l 51.76,-71.23 c 3.822,-5.252 10.83,-6.791 16.409,-3.9 0.575,0.295 1.134,0.652 1.678,1.041 L -4.817,102.665 0,106.161 c 5.796,4.211 7.07,12.307 2.875,18.103 l -51.76,71.23 c -4.211,5.781 -12.307,7.07 -18.088,2.859 l -4.863,-3.527 c -26.882,18.678 -59.312,29.912 -94.274,30.689 h -0.003 l -1.944,5.984 c -2.151,6.618 -9.259,10.24 -15.876,8.089 l -84.412,-27.427 c -6.618,-2.15 -10.24,-9.258 -8.09,-15.876 l 1.97,-6.061 c -26.555,-20.263 -47.065,-48.06 -58.33,-80.162 0,-10e-4 0,-0.002 -10e-4,-0.003 h -6.286 c -6.958,0 -12.599,-5.641 -12.599,-12.599 V 8.704 c 0,-6.959 5.641,-12.6 12.599,-12.6 h 6.285 c 0.001,-10e-4 0.002,-0.003 0.002,-0.004 11.266,-32.103 31.777,-59.887 58.333,-80.149 0,-10e-4 0,-10e-4 10e-4,-10e-4 l -1.973,-6.072 c -2.15,-6.618 1.471,-13.725 8.089,-15.876 l 84.412,-27.427 c 6.618,-2.15 13.726,1.471 15.876,8.089 l 1.954,6.013 h 0.009 c 34.962,0.762 67.36,11.981 94.242,30.674 l 4.864,-3.543 c 5.796,-4.211 13.892,-2.921 18.103,2.875 L 2.859,-18.103 C 7.07,-12.307 5.796,-4.211 0,0"
       style="fill:currentColor;fill-opacity:1;fill-rule:nonzero;stroke:none"
       transform="matrix(1.3333333,0,0,-1.3333333,593.53813,444.90853)" />
  </g>
</svg>
